<?xml version="1.0" encoding="utf-8"?>
<svg version="1.1" xmlns:xlink="http://www.w3.org/1999/xlink" width="19px" height="18px" preserveAspectRatio="xMinYMid meet" viewBox="601 512  19 16" xmlns="http://www.w3.org/2000/svg">
  <path d="M 2142 349.5  L 625 349.5  A 5 5 0 0 0 620.5 354.5 L 620.5 515  A 5 5 0 0 1 615.5 520.5 " stroke-width="1" stroke-dasharray="9,4" stroke="#f59a23" fill="none" />
  <path d="M 2144.1 353.2  L 2148 349.5  L 2144.1 345.8  L 2140.3 349.5  L 2144.1 353.2  Z M 2144.1 347.2  L 2146.6 349.5  L 2144.1 351.8  L 2141.7 349.5  L 2144.1 347.2  Z M 613.9 516.8  L 610 520.5  L 613.9 524.2  L 617.7 520.5  L 613.9 516.8  Z M 613.9 522.8  L 611.4 520.5  L 613.9 518.2  L 616.3 520.5  L 613.9 522.8  Z " fill-rule="nonzero" fill="#f59a23" stroke="none" />
</svg>